# xmcd CD database file
#
# Track frame offsets:
#	150
#	50363
#	75454
#	103232
#	135764
#	146475
#	152183
#	185344
#	195912
#	237024
#	272251
#
# Disc length: 4220 seconds
#
# Revision: 0
# Processed by: cddbd v1.5.2PL0 Copyright (c) Steve Scherf et al.
# Submitted via: CDex 1.70beta2
#
DISCID=80107a0b
DTITLE=Bernard Lubet - vive l'Amusique!
DYEAR=1900
DGENRE=Jazz
TTITLE0=Comment c'est?
TTITLE1=Il jouait du piano des deux bouts
TTITLE2=Neit in Uzestois
TTITLE3=La table d'écoute
TTITLE4=Macdominable
TTITLE5=Le CDJA
TTITLE6=Il faut que ça saute!
TTITLE7=Mes nuits blanches
TTITLE8=La batterie est en danger!
TTITLE9=Le désaccordéoniste
TTITLE10=Tam l'enfantine de cuisine gasconcubine
EXTD=
EXTT0=
EXTT1=
EXTT2=
EXTT3=
EXTT4=
EXTT5=
EXTT6=
EXTT7=
EXTT8=
EXTT9=
EXTT10=
PLAYORDER=
